<?xml version="1.0" standalone="no"?><!DOCTYPE svg PUBLIC "-//W3C//DTD SVG 1.1//EN" "http://www.w3.org/Graphics/SVG/1.1/DTD/svg11.dtd"><svg t="1586767931593" class="icon" viewBox="0 0 1024 1024" version="1.1" xmlns="http://www.w3.org/2000/svg" p-id="9849" xmlns:xlink="http://www.w3.org/1999/xlink" width="200" height="200"><defs><style type="text/css"></style></defs><path d="M132.577882 283.648c7.710118-8.041412 18.251294-12.589176 29.214118-12.589176 10.992941 0 21.534118 4.517647 29.214118 12.589176L514.349176 619.218824l318.644706-330.812236c7.710118-8.041412 18.251294-12.589176 29.214118-12.589176 11.023059 0 21.534118 4.517647 29.244235 12.589176 8.071529 8.372706 12.107294 19.335529 12.107294 30.328471 0 10.992941-4.065882 21.985882-12.107294 30.32847L543.533176 710.234353a40.448 40.448 0 0 1-29.214117 12.589176c-10.992941 0-21.504-4.517647-29.214118-12.589176L132.577882 344.304941a44.001882 44.001882 0 0 1 0-60.656941z" p-id="9850"></path></svg>