<?xml version="1.0" standalone="no"?><!DOCTYPE svg PUBLIC "-//W3C//DTD SVG 1.1//EN" "http://www.w3.org/Graphics/SVG/1.1/DTD/svg11.dtd"><svg t="1586764345053" class="icon" viewBox="0 0 1024 1024" version="1.1" xmlns="http://www.w3.org/2000/svg" p-id="19889" xmlns:xlink="http://www.w3.org/1999/xlink" width="200" height="200"><defs><style type="text/css"></style></defs><path d="M524 699.4H257.8c-26.4 0-47.8-21.1-47.8-47.1v-37.8c0-33.8 8.5-67.3 24.7-96.9 4.5-8.2 14.8-11.3 23.1-6.8 8.2 4.5 11.3 14.8 6.8 23.1-13.4 24.7-20.5 52.6-20.5 80.7v37.8c0 7.2 6.2 13.1 13.8 13.1H524c9.4 0 17 7.6 17 17s-7.6 16.9-17 16.9z" fill="#F21D40" p-id="19890"></path><path d="M280.8 231.2c34.4 0 66.8 14.6 88.8 40.2l20.4 23.7 30.2-8c31.5-8.4 64.1-12.6 96.9-12.6s65.4 4.2 96.9 12.6l30.2 8 20.4-23.7c22.1-25.5 54.4-40.2 88.8-40.2 20.4 0 40.5 5.3 58.2 15.4 26.9 15.3 46.1 40 54 69.4 7.8 29 3.6 59.3-11.6 85.3l-9.6 16.4-14.3 24.4 13.5 24.8c14 25.8 24.8 53.1 32.1 81.4 7.5 29.1 11.3 59.2 11.3 89.5v77.9c0 20.4-17.2 37-38.4 37H185.5c-21.2 0-38.4-16.6-38.4-37v-77.9c0-30.3 3.8-60.5 11.3-89.5 7.3-28.2 18.1-55.6 32.1-81.4l13.5-24.8-14.3-24.4-9.6-16.4c-15.2-26-19.4-56.3-11.6-85.3 7.9-29.5 27.1-54.1 54-69.4 17.8-10.1 37.9-15.4 58.3-15.4m0-50c-28.2 0-56.8 7.1-82.9 21.9-79.5 45.2-106.8 145.2-60.9 223.5l9.6 16.4C115 501 97.1 567.4 97.1 637.8v77.9c0 48 39.6 87 88.4 87h663.2c48.8 0 88.4-38.9 88.4-87v-77.9c0-70.4-17.9-136.8-49.5-194.8l9.6-16.4c45.9-78.2 18.7-178.3-60.8-223.5-26.2-14.9-54.7-21.9-82.9-21.9-47.9 0-94.6 20.4-126.7 57.5-35-9.3-71.7-14.3-109.7-14.3s-74.7 5-109.7 14.3c-32-37.1-78.8-57.5-126.6-57.5z" fill="#1A1A1A" p-id="19891"></path></svg>