<?xml version="1.0" standalone="no"?><!DOCTYPE svg PUBLIC "-//W3C//DTD SVG 1.1//EN" "http://www.w3.org/Graphics/SVG/1.1/DTD/svg11.dtd"><svg t="1586360438809" class="icon" viewBox="0 0 1024 1024" version="1.1" xmlns="http://www.w3.org/2000/svg" p-id="7042" xmlns:xlink="http://www.w3.org/1999/xlink" width="200" height="200"><defs><style type="text/css"></style></defs><path d="M511.998465 422.327678c-79.020728 0-143.107325 64.064085-143.107325 143.107325 0 79.022775 64.086597 143.086859 143.107325 143.086859 79.022775 0 143.108349-64.064085 143.108349-143.086859C655.106814 486.392786 591.02124 422.327678 511.998465 422.327678z" p-id="7043" fill="#ffffff"></path><path d="M869.746312 198.735273 726.638987 198.735273l-80.484056-89.436962-268.310885 0-80.484056 89.436962L154.250618 198.735273c-49.194422 0-89.436962 40.24254-89.436962 89.436962l0 536.622794c0 49.194422 40.24254 89.434915 89.436962 89.434915l715.495694 0c49.194422 0 89.436962-40.240493 89.436962-89.434915L959.183274 288.172235C959.184297 238.977813 918.941757 198.735273 869.746312 198.735273zM511.998465 780.075525c-125.202537 0-223.592404-98.388844-223.592404-223.592404 0-125.202537 98.388844-223.592404 223.592404-223.592404 125.20356 0 223.593428 98.388844 223.593428 223.592404C735.591893 681.685657 637.201002 780.075525 511.998465 780.075525z" p-id="7044" fill="#ffffff"></path></svg>