<?xml version="1.0" standalone="no"?><!DOCTYPE svg PUBLIC "-//W3C//DTD SVG 1.1//EN" "http://www.w3.org/Graphics/SVG/1.1/DTD/svg11.dtd"><svg t="1586759356550" class="icon" viewBox="0 0 1024 1024" version="1.1" xmlns="http://www.w3.org/2000/svg" p-id="8156" xmlns:xlink="http://www.w3.org/1999/xlink" width="200" height="200"><defs><style type="text/css"></style></defs><path d="M512 115.6c32.5 33.6 83.9 89.6 135.1 157.5C755 416 812 544.7 812 645c0 39.9-7.8 77.2-23 110.9-14.5 32-35.6 60.3-62.5 84.1-54.9 48.4-131 75-214.4 75s-159.5-26.6-214.4-75c-27-23.8-48-52.1-62.5-84.1-15.3-33.7-23-71-23-110.9 0-100 56.7-228.2 164-370.7C427.3 206 479.3 149.4 512 115.6m0-70.6S162 372.8 162 645c0 193.3 156.7 320 350 320s350-126.7 350-320c0-272.2-350-600-350-600zM379.4 737.1c-13.7-34.4-19.7-72-17.8-111.9 2.2-45.8 16.5-96.9 42.4-152l-53.7-2.5c-21.8 50.6-36.2 102.1-38.6 152.2-2.5 51.8 6.6 99.4 24.9 141.4l57.1 2.7c-5.4-9.6-10.2-19.6-14.3-29.9z" fill="" p-id="8157"></path></svg>