<?xml version="1.0" standalone="no"?><!DOCTYPE svg PUBLIC "-//W3C//DTD SVG 1.1//EN" "http://www.w3.org/Graphics/SVG/1.1/DTD/svg11.dtd"><svg t="1586763677353" class="icon" viewBox="0 0 1024 1024" version="1.1" xmlns="http://www.w3.org/2000/svg" p-id="10247" xmlns:xlink="http://www.w3.org/1999/xlink" width="200" height="200"><defs><style type="text/css"></style></defs><path d="M36.197719 837.475285a186.768061 186.768061 0 0 0 186.524714 186.524715h578.555134a186.646388 186.646388 0 0 0 186.524714-186.524715v-650.95057A186.646388 186.646388 0 0 0 801.277567 0H222.722433A186.768061 186.768061 0 0 0 36.197719 186.524715z m83.832699 0v-650.95057a102.813688 102.813688 0 0 1 102.692015-102.692015h578.555134a102.935361 102.935361 0 0 1 102.813688 102.692015v650.95057a102.935361 102.935361 0 0 1-102.813688 102.692015H222.722433a102.813688 102.813688 0 0 1-102.692015-102.692015z" fill="#4D4D4D" p-id="10248"></path><path d="M222.722433 306.737643H812.471483a41.855513 41.855513 0 0 0 0-83.711027H222.722433a41.855513 41.855513 0 0 0 0 83.711027zM222.722433 565.657795H812.471483a41.977186 41.977186 0 0 0 0-83.8327H222.722433a41.977186 41.977186 0 0 0 0 83.8327zM222.722433 824.577947h597.171103a41.977186 41.977186 0 0 0 0-83.8327H222.722433a41.977186 41.977186 0 0 0 0 83.8327z" fill="#4D4D4D" p-id="10249"></path></svg>