<?xml version="1.0" standalone="no"?><!DOCTYPE svg PUBLIC "-//W3C//DTD SVG 1.1//EN" "http://www.w3.org/Graphics/SVG/1.1/DTD/svg11.dtd"><svg t="1586759266262" class="icon" viewBox="0 0 1024 1024" version="1.1" xmlns="http://www.w3.org/2000/svg" p-id="5388" xmlns:xlink="http://www.w3.org/1999/xlink" width="200" height="200"><defs><style type="text/css"></style></defs><path d="M512 64c-247.41888 0-448 200.580096-448 448 0 247.433216 200.58112 448 448 448 247.43424 0 448-200.56576 448-448C960 264.580096 759.43424 64 512 64zM512 904.875008c-216.152064 0-392.000512-176.722944-392.000512-392.875008s175.848448-392.000512 392.000512-392.000512c216.153088 0 392.000512 175.847424 392.000512 392.000512S728.153088 904.875008 512 904.875008z" p-id="5389"></path><path d="M540.000256 500.637696 540.000256 231.999488c0-15.463424-12.536832-28.000256-28.000256-28.000256s-28.000256 12.536832-28.000256 28.000256l0 280.000512c0 7.56736 3.008512 14.42816 7.885824 19.467264 0.644096 0.805888 1.335296 1.586176 2.080768 2.331648l138.592256 138.592256c10.938368 10.9312 28.669952 10.9312 39.60832 0 10.937344-10.930176 10.937344-28.662784 0-39.600128L540.000256 500.637696z" p-id="5390"></path></svg>