<?xml version="1.0" standalone="no"?><!DOCTYPE svg PUBLIC "-//W3C//DTD SVG 1.1//EN" "http://www.w3.org/Graphics/SVG/1.1/DTD/svg11.dtd"><svg t="1586764396529" class="icon" viewBox="0 0 1024 1024" version="1.1" xmlns="http://www.w3.org/2000/svg" p-id="22164" xmlns:xlink="http://www.w3.org/1999/xlink" width="200" height="200"><defs><style type="text/css"></style></defs><path d="M192 480.224v383.552a32.224 32.224 0 0 0 64.448 0V480.224a32.224 32.224 0 0 0-64.448 0z m342.624-260c-10.368 62.848-15.36 84.48-32.8 121.408-22.752 48.256-66.016 94.016-117.824 127.68V832h356.48a32676.256 32676.256 0 0 0 70.72-362.656h-215.84l9.152-71.36c18.72-146.464-6.016-201.76-64.384-205.76-1.504 5.856-3.328 14.848-5.504 28z m140.352 185.12h141.888c39.2 0 71.2 5.632 71.2 36.8 0 3.04-26.24 140.064-78.752 411.072-7.872 25.152-36.256 42.784-68.864 42.784H386.176c-39.2 0-65.728-11.616-65.728-42.784V430.016C533.12 320 408.96 128 533.12 128c103.68 0 152.832 71.104 147.392 213.344-1.92 28.832-3.744 50.176-5.504 64z" fill="#636363" p-id="22165"></path></svg>