<?xml version="1.0" standalone="no"?><!DOCTYPE svg PUBLIC "-//W3C//DTD SVG 1.1//EN" "http://www.w3.org/Graphics/SVG/1.1/DTD/svg11.dtd"><svg t="1586355200448" class="icon" viewBox="0 0 1025 1024" version="1.1" xmlns="http://www.w3.org/2000/svg" p-id="13500" xmlns:xlink="http://www.w3.org/1999/xlink" width="200.1953125" height="200"><defs><style type="text/css"></style></defs><path d="M511.05442 633.80384c195.295076 0 357.702583 140.377738 392.154862 325.714544l54.799652 0C926.958288 769.244912 777.266994 619.098224 587.35272 586.798061c106.116826-36.237011 182.538952-136.592347 182.538952-255.012974 0-148.919685-120.709873-269.657188-269.632627-269.657188-148.895124 0-269.607044 120.734433-269.607044 269.657188 0 120.813232 79.442048 223.054612 188.906269 257.352364C236.822834 626.622956 94.321633 774.215348 64.127536 959.51736l54.752578 0C153.350813 774.180554 315.76139 633.80384 511.05442 633.80384zM284.578731 331.785087c0-119.125719 96.557665-215.732505 215.68236-215.732505 119.122649 0 215.703851 96.603716 215.703851 215.732505 0 119.152326-96.581202 215.758088-215.703851 215.758088C381.135373 547.543176 284.578731 450.93639 284.578731 331.785087z" p-id="13501"></path></svg>