<?xml version="1.0" standalone="no"?><!DOCTYPE svg PUBLIC "-//W3C//DTD SVG 1.1//EN" "http://www.w3.org/Graphics/SVG/1.1/DTD/svg11.dtd"><svg t="1586355207068" class="icon" viewBox="0 0 1024 1024" version="1.1" xmlns="http://www.w3.org/2000/svg" p-id="13626" xmlns:xlink="http://www.w3.org/1999/xlink" width="200" height="200"><defs><style type="text/css"></style></defs><path d="M937.493333 898.56c0 28.8-16.234667 40.106667-30.826666 40.106667a32 32 0 0 1-32-32c-0.682667-148.330667-143.274667-313.6-320-313.6h-85.333334c-176.725333 0-320 161.856-320 313.6A32 32 0 0 1 117.333333 938.666667c-16 0-30.314667-10.666667-30.314666-45.461334a383.36 383.36 0 0 1 334.698666-356.586666 234.666667 234.666667 0 1 1 180.565334 0A383.445333 383.445333 0 0 1 937.493333 898.56z" p-id="13627" fill="#d81e06"></path></svg>