<?xml version="1.0" standalone="no"?><!DOCTYPE svg PUBLIC "-//W3C//DTD SVG 1.1//EN" "http://www.w3.org/Graphics/SVG/1.1/DTD/svg11.dtd"><svg t="1586759238942" class="icon" viewBox="0 0 1024 1024" version="1.1" xmlns="http://www.w3.org/2000/svg" p-id="3812" xmlns:xlink="http://www.w3.org/1999/xlink" width="200" height="200"><defs><style type="text/css"></style></defs><path d="M887.808 841.04533332H129.024c-35.84 0-65.024-29.184-65.024-65.024V219.98933332c0-35.84 29.184-65.024 65.024-65.024h759.296c35.84 0 65.024 29.184 65.024 65.024v556.032c-0.512 35.84-29.696 65.024-65.536 65.024zM129.024 206.16533332c-7.68 0-13.824 6.144-13.824 13.824v556.032c0 7.68 6.144 13.824 13.824 13.824h759.296c7.68 0 13.824-6.144 13.824-13.824V219.98933332c0-7.68-6.144-13.824-13.824-13.824H129.024z" fill="#000000" p-id="3813"></path><path d="M486.912 555.86133332L203.264 272.21333332c-10.24-10.24-10.24-26.112 0-36.352s26.112-10.24 36.352 0l283.648 283.648c10.24 10.24 10.24 26.112 0 36.352-10.24 9.728-26.624 9.728-36.352 0z" fill="#000000" p-id="3814"></path><path d="M813.568 271.18933332l-283.648 283.648c-10.24 10.24-26.112 10.24-36.352 0s-10.24-26.112 0-36.352l283.648-283.648c10.24-10.24 26.112-10.24 36.352 0 9.728 10.24 9.728 26.624 0 36.352z" fill="#000000" p-id="3815"></path></svg>