<?xml version="1.0" standalone="no"?><!DOCTYPE svg PUBLIC "-//W3C//DTD SVG 1.1//EN" "http://www.w3.org/Graphics/SVG/1.1/DTD/svg11.dtd"><svg t="1586759305878" class="icon" viewBox="0 0 1024 1024" version="1.1" xmlns="http://www.w3.org/2000/svg" p-id="6907" xmlns:xlink="http://www.w3.org/1999/xlink" width="200" height="200"><defs><style type="text/css"></style></defs><path d="M900.508167 245.564561l0.126962-0.436175C340.7132 82.78932 337.254515 81.763387 297.11002 69.909866l-3.609196-1.066888c-20.645624-6.111572-45.367335-0.478154-66.053914 14.985585-19.128226 14.28832-30.094037 33.689923-30.094038 53.215416V242.326011h-52.832482c-44.874846 0-81.381477 36.506631-81.381478 81.381478v515.26517c0 44.874846 36.506631 81.381477 81.381478 81.381477h733.307693c44.874846 0 81.381477-36.506631 81.381478-81.381477V323.706465c0-37.003216-24.832291-68.295199-58.701394-78.141904zM253.316397 137.549778c0.314333-1.407842 3.48633-6.65935 10.979122-11.075367 6.631705-3.924552 11.8955-4.361751 13.345321-3.924553l3.61022 1.066889c34.821316 10.291071 42.049946 12.429968 408.60294 118.708241H253.356328l-0.039931-104.77521z m649.888684 701.421857c0 13.987297-11.3897 25.376998-25.376998 25.376998H144.52039c-13.987297 0-25.376998-11.3897-25.376998-25.376998V323.706465c0-13.987297 11.3897-25.376998 25.376998-25.376998h733.307693c13.987297 0 25.376998 11.3897 25.376998 25.376998v515.26517z" fill="#3E3A39" p-id="6908"></path><path d="M277.315245 581.333419m-51.959109 0a51.959109 51.959109 0 1 0 103.918217 0 51.959109 51.959109 0 1 0-103.918217 0Z" fill="#3E3A39" p-id="6909"></path></svg>