<?xml version="1.0" standalone="no"?><!DOCTYPE svg PUBLIC "-//W3C//DTD SVG 1.1//EN" "http://www.w3.org/Graphics/SVG/1.1/DTD/svg11.dtd"><svg t="1586355134940" class="icon" viewBox="0 0 1024 1024" version="1.1" xmlns="http://www.w3.org/2000/svg" p-id="12706" xmlns:xlink="http://www.w3.org/1999/xlink" width="200" height="200"><defs><style type="text/css"></style></defs><path d="M878.856869 848.042221L670.733366 606.90767c97.458096-111.814182 100.528724-281.609031 0.859776-397.093516a302.987822 302.987822 0 0 0-229.603443-105.094927A303.081747 303.081747 0 0 0 244.031779 178.385381c-61.296945 52.901489-98.332322 126.524293-104.271277 207.270951-5.931729 80.761109 19.93379 159.000691 72.835279 220.297637a303.045622 303.045622 0 0 0 392.939138 57.200367l208.130727 241.149001a42.952656 42.952656 0 0 0 32.613674 14.919636 43.039357 43.039357 0 0 0 32.577549-71.180752z" fill="#d81e06" p-id="12707"></path></svg>