<?xml version="1.0" standalone="no"?><!DOCTYPE svg PUBLIC "-//W3C//DTD SVG 1.1//EN" "http://www.w3.org/Graphics/SVG/1.1/DTD/svg11.dtd"><svg t="1586355119486" class="icon" viewBox="0 0 1024 1024" version="1.1" xmlns="http://www.w3.org/2000/svg" p-id="12580" xmlns:xlink="http://www.w3.org/1999/xlink" width="200" height="200"><defs><style type="text/css"></style></defs><path d="M413.679717 606.580099c-109.2451 0-196.641589-87.396489-196.641589-196.642612s87.396489-196.641589 196.641589-196.641589 196.641589 87.396489 196.641589 196.641589S522.924817 606.580099 413.679717 606.580099zM675.869185 606.580099l-34.958186 0-13.109576-13.109576c43.698245-48.067762 69.917396-113.615641 69.917396-183.533037 0-157.312862-126.725216-284.038078-284.038078-284.038078-157.313885 0-284.038078 126.724193-284.038078 284.038078 0 157.313885 126.724193 284.038078 284.038078 284.038078 69.917396 0 135.464251-26.219151 183.532013-69.917396l13.109576 13.109576 0 34.958186 218.491223 218.491223 65.546855-65.546855L675.869185 606.580099z" p-id="12581"></path></svg>