<?xml version="1.0" standalone="no"?><!DOCTYPE svg PUBLIC "-//W3C//DTD SVG 1.1//EN" "http://www.w3.org/Graphics/SVG/1.1/DTD/svg11.dtd"><svg t="1586355015434" class="icon" viewBox="0 0 1024 1024" version="1.1" xmlns="http://www.w3.org/2000/svg" p-id="10251" xmlns:xlink="http://www.w3.org/1999/xlink" width="200" height="200"><defs><style type="text/css"></style></defs><path d="M880.4 116.6H144.1c-26.5 0-47.9 21.5-47.9 47.9v541.1c0 20.7 16.7 37.4 37.4 37.4h746.9c26.5 0 47.9-21.5 47.9-47.9V164.5c0-26.5-21.5-47.9-48-47.9zM642.2 440.3L440.5 555.7c-13.7 7.9-31.1-1.8-31.1-17.3v-225c0-15.3 16.9-25 30.7-17.5l201.7 109.6c13.9 7.5 14.2 26.9 0.4 34.8zM819.9 911.3H202.4c-0.6 0-1-0.4-1-1V809.4c0-0.5 0.4-1 1-1h617.5c0.5 0 1 0.4 1 1v100.9c-0.1 0.6-0.5 1-1 1z" p-id="10252" fill="#d81e06"></path></svg>